<svg xmlns="http://www.w3.org/2000/svg" width="64" height="64" enable-background="new 0 0 64 64" viewBox="0 0 64 64"><path fill="#2C2E63" d="M59.591,2.89C57.731,1.03,55.251,0,52.611,0c0,0,0,0-0.01,0c-2.63,0-5.11,1.02-6.97,2.88l-12.67,12.68
		c-0.02,0.01-0.02,0.03-0.03,0.05c-1.82,1.91,0.92,6.35,4.25,9.69c2.61,2.6,5.88,4.84,8.1,4.84c0.63,0,1.18-0.19,1.6-0.59
		c0.01-0.01,0.03-0.02,0.04-0.03l12.68-12.67c1.86-1.87,2.89-4.35,2.88-6.97C62.491,7.24,61.461,4.76,59.591,2.89z M45.551,28.15
		c-0.36,0.36-3.32-0.55-6.99-4.23c-3.68-3.67-4.58-6.63-4.23-6.99c0.05-0.04,0.14-0.07,0.27-0.07c0.88,0,3.53,1.1,6.72,4.3
		C45.001,24.84,45.901,27.79,45.551,28.15z M58.231,15.48l-10.95,10.95c-0.66-2.06-2.51-4.57-4.58-6.65
		c-2.08-2.07-4.59-3.92-6.65-4.58l10.95-10.95c1.5-1.49,3.49-2.31,5.6-2.31c0.01,0,0.01,0,0.01,0c2.12,0,4.11,0.82,5.61,2.32
		c1.5,1.51,2.33,3.5,2.32,5.62C60.551,11.99,59.721,13.98,58.231,15.48z"/><path fill="#EDC35E" d="M60.541,9.88c0.01,2.11-0.82,4.1-2.31,5.6l-10.95,10.95c-0.66-2.06-2.51-4.57-4.58-6.65
		c-2.08-2.07-4.59-3.92-6.65-4.58l10.95-10.95c1.5-1.49,3.49-2.31,5.6-2.31c0.01,0,0.01,0,0.01,0c2.12,0,4.11,0.82,5.61,2.32
		C59.721,5.77,60.551,7.76,60.541,9.88z"/><path fill="#FFDC7C" d="M45.551,28.15c-0.36,0.36-3.32-0.55-6.99-4.23c-3.68-3.67-4.58-6.63-4.23-6.99
		c0.05-0.04,0.14-0.07,0.27-0.07c0.88,0,3.53,1.1,6.72,4.3C45.001,24.84,45.901,27.79,45.551,28.15z"/><path fill="#2C2E63" d="M29.721,15.6c-0.01-0.01-0.01-0.03-0.03-0.04L18.361,4.23c-1.86-1.86-4.32-2.89-6.94-2.89h-0.06
		c-2.62,0-5.09,1.03-6.95,2.89c-3.85,3.85-3.86,10.11-0.01,13.96l11.33,11.33c0.01,0.01,0.03,0.02,0.04,0.03
		c0.42,0.4,0.97,0.59,1.6,0.59c2.22,0,5.5-2.24,8.1-4.84c1.75-1.76,3.18-3.64,4.02-5.31C30.751,17.49,30.321,16.23,29.721,15.6z
		 M15.381,26.43l-9.61-9.61c-3.09-3.09-3.09-8.12,0.01-11.22c1.49-1.49,3.48-2.32,5.59-2.32h0.04c2.11,0,4.09,0.83,5.58,2.32
		l9.61,9.6c-2.06,0.66-4.56,2.51-6.64,4.58c-1.75,1.76-3.18,3.64-4.03,5.31C15.681,25.59,15.511,26.03,15.381,26.43z M24.101,23.92
		c-3.68,3.68-6.64,4.58-7,4.23c-0.35-0.36,0.55-3.31,4.23-6.99c3.2-3.2,5.85-4.3,6.72-4.3c0.13,0,0.22,0.03,0.27,0.07
		C28.681,17.29,27.781,20.25,24.101,23.92z"/><path fill="#D7E9F2" d="M24.101,23.92c-3.68,3.68-6.64,4.58-7,4.23c-0.35-0.36,0.55-3.31,4.23-6.99c3.2-3.2,5.85-4.3,6.72-4.3
		c0.13,0,0.22,0.03,0.27,0.07C28.681,17.29,27.781,20.25,24.101,23.92z"/><path fill="#B6D9E6" d="M26.601,15.2c-2.06,0.66-4.56,2.51-6.64,4.58c-1.75,1.76-3.18,3.64-4.03,5.31
		c-0.25,0.5-0.42,0.94-0.55,1.34l-9.61-9.61c-3.09-3.09-3.09-8.12,0.01-11.22c1.49-1.49,3.48-2.32,5.59-2.32h0.04
		c2.11,0,4.09,0.83,5.58,2.32L26.601,15.2z"/><path fill="#E3B349" d="M60.541,9.88c0.01,2.11-0.82,4.1-2.31,5.6l-1.67,1.67c1.49-1.5,2.32-3.49,2.31-5.6
		c0.01-2.12-0.82-4.11-2.32-5.62c-1.5-1.5-3.49-2.32-5.61-2.32c0,0,0,0-0.01,0c-2.11,0-4.1,0.82-5.6,2.31l1.67-1.67
		c1.5-1.49,3.49-2.31,5.6-2.31c0.01,0,0.01,0,0.01,0c2.12,0,4.11,0.82,5.61,2.32C59.721,5.77,60.551,7.76,60.541,9.88z"/><path fill="#A0C3D8" d="M18.991,7.6c-1.49-1.49-3.47-2.32-5.58-2.32h-0.04c-2.11,0-4.1,0.83-5.59,2.32
		c-3.1,3.1-3.1,8.13-0.01,11.22l-2-2c-3.09-3.09-3.09-8.12,0.01-11.22c1.49-1.49,3.48-2.32,5.59-2.32h0.04
		c2.11,0,4.09,0.83,5.58,2.32L18.991,7.6z"/><path fill="#2C2E63" d="M32.491,25.61c-1.78,0-3.23,1.45-3.23,3.23c0,1.78,1.45,3.22,3.23,3.22c1.77,0,3.22-1.44,3.22-3.22
		C35.711,27.06,34.261,25.61,32.491,25.61z M32.491,30.12c-0.71,0-1.29-0.57-1.29-1.28c0-0.71,0.58-1.29,1.29-1.29
		c0.7,0,1.28,0.58,1.28,1.29C33.771,29.55,33.191,30.12,32.491,30.12z"/><path fill="#F26E61" d="M33.771,28.84c0,0.71-0.58,1.28-1.28,1.28c-0.71,0-1.29-0.57-1.29-1.28c0-0.71,0.58-1.29,1.29-1.29
		C33.191,27.55,33.771,28.13,33.771,28.84z"/><path fill="#2C2E63" d="M25.481,32.54c-1.77,0-3.22,1.45-3.22,3.23c0,1.77,1.45,3.22,3.22,3.22c1.78,0,3.23-1.45,3.23-3.22
		C28.711,33.99,27.261,32.54,25.481,32.54z M25.481,37.05c-0.7,0-1.28-0.58-1.28-1.28c0-0.71,0.58-1.29,1.28-1.29
		c0.71,0,1.29,0.58,1.29,1.29C26.771,36.47,26.191,37.05,25.481,37.05z"/><path fill="#FFE5AB" d="M26.771,35.77c0,0.7-0.58,1.28-1.29,1.28c-0.7,0-1.28-0.58-1.28-1.28c0-0.71,0.58-1.29,1.28-1.29
		C26.191,34.48,26.771,35.06,26.771,35.77z"/><path fill="#2C2E63" d="M29.011,42.05c-1.78,0-3.23,1.44-3.23,3.22c0,1.78,1.45,3.23,3.23,3.23c1.78,0,3.22-1.45,3.22-3.23
		C32.231,43.49,30.791,42.05,29.011,42.05z M29.011,46.56c-0.71,0-1.29-0.58-1.29-1.29c0-0.71,0.58-1.28,1.29-1.28
		c0.71,0,1.28,0.57,1.28,1.28C30.291,45.98,29.721,46.56,29.011,46.56z"/><path fill="#F26E61" d="M30.291,45.27c0,0.71-0.57,1.29-1.28,1.29c-0.71,0-1.29-0.58-1.29-1.29c0-0.71,0.58-1.28,1.29-1.28
		C29.721,43.99,30.291,44.56,30.291,45.27z"/><path fill="#2C2E63" d="M37.691,34.8c-1.78,0-3.23,1.44-3.23,3.22c0,1.78,1.45,3.22,3.23,3.22c1.77,0,3.22-1.44,3.22-3.22
		C40.911,36.24,39.461,34.8,37.691,34.8z M37.691,39.31c-0.71,0-1.29-0.58-1.29-1.29c0-0.71,0.58-1.28,1.29-1.28
		c0.7,0,1.28,0.57,1.28,1.28C38.971,38.73,38.391,39.31,37.691,39.31z"/><path fill="#F0D39A" d="M38.971,38.02c0,0.71-0.58,1.29-1.28,1.29c-0.71,0-1.29-0.58-1.29-1.29c0-0.71,0.58-1.28,1.29-1.28
		C38.391,36.74,38.971,37.31,38.971,38.02z"/><path fill="#2C2E63" d="M31.391,57.55c-1.78,0-3.23,1.44-3.23,3.22c0,1.78,1.45,3.23,3.23,3.23c1.78,0,3.22-1.45,3.22-3.23
		C34.611,58.99,33.171,57.55,31.391,57.55z M31.391,62.06c-0.71,0-1.29-0.58-1.29-1.29c0-0.71,0.58-1.28,1.29-1.28
		c0.71,0,1.28,0.57,1.28,1.28C32.671,61.48,32.101,62.06,31.391,62.06z"/><path fill="#F26E61" d="M32.671,60.77c0,0.71-0.57,1.29-1.28,1.29c-0.71,0-1.29-0.58-1.29-1.29c0-0.71,0.58-1.28,1.29-1.28
		C32.101,59.49,32.671,60.06,32.671,60.77z"/><path fill="#2C2E63" d="M38.761,48.6c-1.78,0-3.23,1.44-3.23,3.22c0,1.78,1.45,3.23,3.23,3.23c1.78,0,3.22-1.45,3.22-3.23
		C41.981,50.04,40.541,48.6,38.761,48.6z M38.761,53.11c-0.71,0-1.29-0.58-1.29-1.29c0-0.71,0.58-1.28,1.29-1.28
		c0.71,0,1.28,0.57,1.28,1.28C40.041,52.53,39.471,53.11,38.761,53.11z"/><path fill="#F0D39A" d="M40.041,51.82c0,0.71-0.57,1.29-1.28,1.29c-0.71,0-1.29-0.58-1.29-1.29c0-0.71,0.58-1.28,1.29-1.28
		C39.471,50.54,40.041,51.11,40.041,51.82z"/></svg>