<svg xmlns="http://www.w3.org/2000/svg" data-name="Layer 1" viewBox="0 0 32 32"><polygon fill="#37b678" points="9.5 26.5 .5 23.5 .5 .5 9.5 3.5 9.5 26.5"/><polygon fill="#37b678" points="27.5 26.5 18.5 23.5 18.5 .5 27.5 3.5 27.5 26.5"/><polygon fill="#00a653" points="9.5 26.5 18.5 23.5 18.5 .5 9.5 3.5 9.5 26.5"/><path fill="#e5303e" d="M31.48374,19.5252A10.6388,10.6388,0,0,1,30.399,23.49845a27.32365,27.32365,0,0,1-4.06079,5.3896c-.2083.24936-2.41324,2.78667-2.59545,2.60239-3.00731-3.04134-6.5019-6.34826-7.502-10.68244a7.59424,7.59424,0,0,1,6.45764-9.24263c3.81083-.50376,7.84679,1.949,8.63983,5.80524A8.21415,8.21415,0,0,1,31.48374,19.5252Z"/><circle cx="23.771" cy="19" r="5.5" fill="#fff"/><circle cx="23.771" cy="19" r="1" fill="#e5303e" transform="rotate(-37.84 23.771 19)"/><path d="M26.02148,18.5h-.84265a1.47956,1.47956,0,0,0-.2218-.41992h-.001a1.48631,1.48631,0,0,0-.68457-.49225V16.25a.5.5,0,0,0-1,0v1.34155a1.49692,1.49692,0,0,0,.3125,2.89673,1.559,1.559,0,0,0,.19043.0127A1.49386,1.49386,0,0,0,25.18225,19.5h.83923a.5.5,0,1,0,0-1Zm-1.94336.89551a.50233.50233,0,0,1-.70215-.08887A.4999.4999,0,0,1,23.77051,18.5a.44768.44768,0,0,1,.0625.00391.50044.50044,0,0,1,.24512.8916Zm7.75-2.125A7.80318,7.80318,0,0,0,28,12.14807V3.5a.49945.49945,0,0,0-.3418-.47412l-9-3c-.01337-.00464-.0271-.00024-.04059-.00366a.66082.66082,0,0,0-.23633.00006c-.01306.00336-.02661-.00092-.03949.0036L9.5,2.97314.6582.02588A.49047.49047,0,0,0,.208.09424.49979.49979,0,0,0,0,.5v23a.501.501,0,0,0,.3418.47461l9,3a.50556.50556,0,0,0,.31641,0l7.5318-2.5072a33.9068,33.9068,0,0,0,5.65668,6.82947l.54.54395A.57533.57533,0,0,0,23.77441,32l.01855-.001c.56738-.02344,2.2373-1.96,2.92871-2.791.31934-.38184.64453-.75488.96875-1.127a20.14313,20.14313,0,0,0,3.1582-4.36426,11.16048,11.16048,0,0,0,1.13379-4.16113A8.71218,8.71218,0,0,0,31.82813,17.27051ZM9,25.80664l-8-2.667V1.19385l8,2.6665ZM19,1.19385l8,2.6665V11.6568a8.47069,8.47069,0,0,0-4.36719-.587A8.22753,8.22753,0,0,0,19,12.49194ZM10,25.80664V3.86035l8-2.6665V13.31049a7.99624,7.99624,0,0,0-2.24609,7.60944,12.61613,12.61613,0,0,0,.96234,2.6507ZM29.9502,23.2793a19.12822,19.12822,0,0,1-3.01367,4.14453c-.32812.377-.6582.75586-.9834,1.14453-.39355.47363-1.582,1.80078-2.12891,2.29395l-.26758-.27051c-2.77539-2.793-5.91992-5.958-6.82812-9.89648a6.99065,6.99065,0,0,1,1.07129-5.62109A7.19075,7.19075,0,0,1,22.76367,12.061a7.4538,7.4538,0,0,1,.97363-.064,7.57473,7.57473,0,0,1,3.48218.856.4813.4813,0,0,0,.12689.06616,6.81957,6.81957,0,0,1,3.50226,4.55243,7.69121,7.69121,0,0,1,.13574,2.02344A10.16655,10.16655,0,0,1,29.9502,23.2793ZM23.77148,13a6,6,0,1,0,6,6A6.00656,6.00656,0,0,0,23.77148,13Zm0,11a5,5,0,1,1,5-5A5.00589,5.00589,0,0,1,23.77148,24Z"/></svg>