<svg xmlns="http://www.w3.org/2000/svg" width="36" height="36" viewBox="0 0 36 36"><g fill="#34485c" font-family="sans-serif" font-size="47.202" font-weight="400" letter-spacing="0" transform="translate(306.994 -2304.862)" word-spacing="0"><path d="m -281.99358,2307.8623 -14.99996,0 c -0.55401,0 -1.00002,0.446 -1.00002,1 l 0,28 c 0,0.554 0.44601,1 1.00002,1 l 14.99996,0 c 0.55401,0 1.00002,-0.446 1.00002,-1 l 0,-28 c 0,-0.554 -0.44601,-1 -1.00002,-1 z" color="#000" overflow="visible" style="isolation:auto;mix-blend-mode:normal"/><path fill="#e9eded" style="isolation:auto;mix-blend-mode:normal" d="m -282.99355,2310.8619 0,22 -13,0 0,-22 z" color="#000" overflow="visible"/><path fill="#e9eded" d="M-291.49356 2308.8623l4 0 0 1-4 0zM-287.63641 2335.3623a1.5000001 1.5000001 0 0 1-1.5 1.5 1.5000001 1.5000001 0 0 1-1.5-1.5 1.5000001 1.5000001 0 0 1 1.5-1.5 1.5000001 1.5000001 0 0 1 1.5 1.5z"/><path fill="#25b39e" d="m -285.49356,2320.6938 a 4,4 0 0 1 -4,4 4,4 0 0 1 -4,-4 4,4 0 0 1 4,-4 4,4 0 0 1 4,4 z"/><path d="M-294.49357 2318.9426l0 3.4778 1.54515 0c.785 0 1.26693-.3577 1.26693-.9539 0-.467-.27823-.7999-.74525-.8794.37759-.089.6111-.3826.6111-.7751 0-.5415-.44715-.8694-1.16756-.8694l-1.51037 0zm.58627.5217l.89429 0c.37263 0 .5962.1589.5962.4521 0 .2931-.22357.467-.5962.467l-.89429 0 0-.9191zm0 1.4358l.89429 0c.45709 0 .73035.1838.73035.4919 0 .3279-.27326.5067-.73035.5067l-.89429 0 0-.9986zM-288.03435 2318.9426l-.58627 0 0 2.037c0 .5912-.35275.939-.91914.939-.57135 0-.93404-.3527-.93404-.939l0-2.037-.58626 0 0 2.037c0 .9092.57632 1.4657 1.51534 1.4657.93901 0 1.51037-.5565 1.51037-1.4657l0-2.037zM-285.77043 2321.2628l1.27687-2.3202-.5962 0-.9738 1.6942-.99366-1.6942-.59123 0 1.29673 2.3401 0 1.1377.58129 0 0-1.1576z" font-family="Montserrat" font-size="medium" style="line-height:125%;-inkscape-font-specification:Montserrat"/><path fill="#f8b84e" style="isolation:auto;mix-blend-mode:normal" d="m -289.22879,2323.351 c -0.23356,0 -0.42158,0.1885 -0.42158,0.4229 l 0,1.6913 -0.47429,0 c -0.20436,0 -0.36888,0.1886 -0.36888,0.4228 l 0,0.039 c 0,0.01 0.002,0.01 0.002,0.01 a 2.1079182,2.1142509 0 0 0 1.05272,1.7881 2.1079182,2.1142509 0 0 0 2.10792,0 2.1079182,2.1142509 0 0 0 1.05396,-1.8268 l 0,-0.427 c 0,-0.2343 -0.16452,-0.4229 -0.36888,-0.4229 l -2.16062,0 0,-1.2685 c 0,-0.2343 -0.18803,-0.4229 -0.42159,-0.4229 z" color="#000" overflow="visible"/><path fill="#e9eded" style="line-height:125%;text-indent:0;text-align:start;text-decoration-line:none;text-decoration-style:solid;text-decoration-color:#000;text-transform:none;block-progression:tb;isolation:auto;mix-blend-mode:normal" d="M 9,4 C 7.9093,4 7,4.9093 7,6 l 0,28 c 0,1.0907 0.9093,2 2,2 l 15,0 c 1.0907,0 2,-0.9093 2,-2 L 26,6 C 26,4.9093 25.0907,4 24,4 L 9,4 Z m 0,1 15,0 c 0.55401,0 1,0.446 1,1 l 0,28 c 0,0.554 -0.44599,1 -1,1 L 9,35 C 8.44599,35 8,34.554 8,34 L 8,6 C 8,5.446 8.44599,5 9,5 Z" color="#000" font-size="medium" overflow="visible" transform="translate(-305.994 2302.862)"/></g></svg>